<svg class="wave" viewBox="0 0 1440 320" preserveAspectRatio="none" xmlns="http://www.w3.org/2000/svg"><defs><linearGradient id="waveGradient" x1="0%" y1="0%" x2="0%" y2="100%"><stop offset="0%" stop-color="#1e90ff"></stop><stop offset="70%" stop-color="#104e8b"></stop></linearGradient></defs><path fill="url(#waveGradient)" d="M0,224L48,224C96,224,192,224,288,208C384,192,480,160,576,138.7C672,117,768,107,864,122.7C960,139,1056,181,1152,197.3C1248,213,1344,203,1392,197.3L1440,192L1440,320L1392,320C1344,320,1248,320,1152,320C1056,320,960,320,864,320C768,320,672,320,576,320C480,320,384,320,288,320C192,320,96,320,48,320L0,320Z"></path></svg>
